<mxfile host="app.diagrams.net" agent="Mozilla/5.0 (Windows NT 10.0; Win64; x64) AppleWebKit/537.36 (KHTML, like Gecko) Chrome/134.0.0.0 Safari/537.36" version="26.1.3">
  <diagram name="Pagina-1" id="Dolo3fPo6EXnG_azXgr7">
    <mxGraphModel dx="2100" dy="4344" grid="1" gridSize="10" guides="1" tooltips="1" connect="1" arrows="1" fold="1" page="1" pageScale="1" pageWidth="2339" pageHeight="3300" math="0" shadow="0">
      <root>
        <mxCell id="0" />
        <mxCell id="1" parent="0" />
        <mxCell id="rwhs5wRmaJiQvYH29Ca9-1" value="" style="rounded=0;whiteSpace=wrap;html=1;strokeWidth=3;gradientColor=none;" vertex="1" parent="1">
          <mxGeometry x="20" y="-50" width="320" height="520" as="geometry" />
        </mxCell>
        <mxCell id="rwhs5wRmaJiQvYH29Ca9-3" value="" style="rounded=0;whiteSpace=wrap;html=1;" vertex="1" parent="1">
          <mxGeometry x="30" y="-40" width="300" height="40" as="geometry" />
        </mxCell>
        <mxCell id="rwhs5wRmaJiQvYH29Ca9-5" value="Version" style="text;strokeColor=none;fillColor=none;html=1;fontSize=24;fontStyle=2;verticalAlign=middle;align=center;fontFamily=Comic Sans MS;" vertex="1" parent="1">
          <mxGeometry x="120" y="-40" width="100" height="40" as="geometry" />
        </mxCell>
        <mxCell id="rwhs5wRmaJiQvYH29Ca9-6" value="" style="rounded=0;whiteSpace=wrap;html=1;" vertex="1" parent="1">
          <mxGeometry x="30" y="10" width="300" height="40" as="geometry" />
        </mxCell>
        <mxCell id="rwhs5wRmaJiQvYH29Ca9-9" value="Previous Block Hash" style="text;strokeColor=none;fillColor=none;html=1;fontSize=24;fontStyle=0;verticalAlign=middle;align=center;fontFamily=Comic Sans MS;" vertex="1" parent="1">
          <mxGeometry x="130" y="10" width="100" height="40" as="geometry" />
        </mxCell>
        <mxCell id="rwhs5wRmaJiQvYH29Ca9-10" value="" style="rounded=0;whiteSpace=wrap;html=1;" vertex="1" parent="1">
          <mxGeometry x="30" y="70" width="140" height="40" as="geometry" />
        </mxCell>
        <mxCell id="rwhs5wRmaJiQvYH29Ca9-11" value="" style="rounded=0;whiteSpace=wrap;html=1;" vertex="1" parent="1">
          <mxGeometry x="190" y="70" width="140" height="40" as="geometry" />
        </mxCell>
        <mxCell id="rwhs5wRmaJiQvYH29Ca9-13" value="&lt;font face=&quot;Comic Sans MS&quot;&gt;&lt;i&gt;Timestamp&lt;/i&gt;&lt;/font&gt;" style="text;strokeColor=none;fillColor=none;html=1;fontSize=24;fontStyle=0;verticalAlign=middle;align=center;" vertex="1" parent="1">
          <mxGeometry x="50" y="70" width="100" height="40" as="geometry" />
        </mxCell>
        <mxCell id="rwhs5wRmaJiQvYH29Ca9-15" value="&lt;font face=&quot;Comic Sans MS&quot;&gt;&lt;i&gt;Nonce&lt;/i&gt;&lt;/font&gt;" style="text;strokeColor=none;fillColor=none;html=1;fontSize=24;fontStyle=0;verticalAlign=middle;align=center;" vertex="1" parent="1">
          <mxGeometry x="205" y="70" width="100" height="40" as="geometry" />
        </mxCell>
        <mxCell id="rwhs5wRmaJiQvYH29Ca9-16" value="" style="rounded=0;whiteSpace=wrap;html=1;" vertex="1" parent="1">
          <mxGeometry x="30" y="120" width="300" height="60" as="geometry" />
        </mxCell>
        <mxCell id="rwhs5wRmaJiQvYH29Ca9-17" value="Merkle Root" style="text;strokeColor=none;fillColor=none;html=1;fontSize=24;fontStyle=2;verticalAlign=middle;align=center;fontFamily=Comic Sans MS;" vertex="1" parent="1">
          <mxGeometry x="120" y="130" width="100" height="40" as="geometry" />
        </mxCell>
        <mxCell id="rwhs5wRmaJiQvYH29Ca9-18" value="" style="line;strokeWidth=2;html=1;" vertex="1" parent="1">
          <mxGeometry x="20" y="190" width="320" height="10" as="geometry" />
        </mxCell>
        <mxCell id="rwhs5wRmaJiQvYH29Ca9-19" value="" style="rounded=0;whiteSpace=wrap;html=1;" vertex="1" parent="1">
          <mxGeometry x="30" y="210" width="300" height="30" as="geometry" />
        </mxCell>
        <mxCell id="rwhs5wRmaJiQvYH29Ca9-22" value="Transaction&lt;sub&gt;1&lt;/sub&gt;" style="text;strokeColor=none;fillColor=none;html=1;fontSize=18;fontStyle=2;verticalAlign=middle;align=center;fontFamily=Comic Sans MS;" vertex="1" parent="1">
          <mxGeometry x="130" y="215" width="100" height="20" as="geometry" />
        </mxCell>
        <mxCell id="rwhs5wRmaJiQvYH29Ca9-24" value="" style="rounded=0;whiteSpace=wrap;html=1;" vertex="1" parent="1">
          <mxGeometry x="30" y="250" width="300" height="30" as="geometry" />
        </mxCell>
        <mxCell id="rwhs5wRmaJiQvYH29Ca9-25" value="Transaction&lt;span style=&quot;font-size: 15px;&quot;&gt;&lt;sub&gt;2&lt;/sub&gt;&lt;/span&gt;" style="text;strokeColor=none;fillColor=none;html=1;fontSize=18;fontStyle=2;verticalAlign=middle;align=center;fontFamily=Comic Sans MS;" vertex="1" parent="1">
          <mxGeometry x="130" y="255" width="100" height="20" as="geometry" />
        </mxCell>
        <mxCell id="rwhs5wRmaJiQvYH29Ca9-30" value="" style="ellipse;whiteSpace=wrap;html=1;aspect=fixed;gradientColor=none;fillColor=#000000;strokeColor=none;gradientDirection=north;" vertex="1" parent="1">
          <mxGeometry x="175" y="300" width="10" height="10" as="geometry" />
        </mxCell>
        <mxCell id="rwhs5wRmaJiQvYH29Ca9-32" value="" style="ellipse;whiteSpace=wrap;html=1;aspect=fixed;gradientColor=none;fillColor=#000000;strokeColor=none;gradientDirection=north;" vertex="1" parent="1">
          <mxGeometry x="175" y="320" width="10" height="10" as="geometry" />
        </mxCell>
        <mxCell id="rwhs5wRmaJiQvYH29Ca9-33" value="" style="ellipse;whiteSpace=wrap;html=1;aspect=fixed;gradientColor=none;fillColor=#000000;strokeColor=none;gradientDirection=north;" vertex="1" parent="1">
          <mxGeometry x="175" y="340" width="10" height="10" as="geometry" />
        </mxCell>
        <mxCell id="rwhs5wRmaJiQvYH29Ca9-34" value="" style="ellipse;whiteSpace=wrap;html=1;aspect=fixed;gradientColor=none;fillColor=#000000;strokeColor=none;gradientDirection=north;" vertex="1" parent="1">
          <mxGeometry x="175" y="360" width="10" height="10" as="geometry" />
        </mxCell>
        <mxCell id="rwhs5wRmaJiQvYH29Ca9-35" value="" style="ellipse;whiteSpace=wrap;html=1;aspect=fixed;gradientColor=none;fillColor=#000000;strokeColor=none;gradientDirection=north;" vertex="1" parent="1">
          <mxGeometry x="175" y="380" width="10" height="10" as="geometry" />
        </mxCell>
        <mxCell id="rwhs5wRmaJiQvYH29Ca9-36" value="" style="ellipse;whiteSpace=wrap;html=1;aspect=fixed;gradientColor=none;fillColor=#000000;strokeColor=none;gradientDirection=north;" vertex="1" parent="1">
          <mxGeometry x="175" y="400" width="10" height="10" as="geometry" />
        </mxCell>
        <mxCell id="rwhs5wRmaJiQvYH29Ca9-37" value="" style="rounded=0;whiteSpace=wrap;html=1;" vertex="1" parent="1">
          <mxGeometry x="30" y="420" width="300" height="30" as="geometry" />
        </mxCell>
        <mxCell id="rwhs5wRmaJiQvYH29Ca9-38" value="Transaction&lt;span style=&quot;font-size: 12.5px;&quot;&gt;&lt;sub&gt;n&lt;/sub&gt;&lt;/span&gt;" style="text;strokeColor=none;fillColor=none;html=1;fontSize=18;fontStyle=2;verticalAlign=middle;align=center;fontFamily=Comic Sans MS;" vertex="1" parent="1">
          <mxGeometry x="130" y="425" width="100" height="20" as="geometry" />
        </mxCell>
        <mxCell id="rwhs5wRmaJiQvYH29Ca9-185" value="" style="rounded=0;whiteSpace=wrap;html=1;strokeWidth=3;gradientColor=none;" vertex="1" parent="1">
          <mxGeometry x="510" y="-50" width="320" height="520" as="geometry" />
        </mxCell>
        <mxCell id="rwhs5wRmaJiQvYH29Ca9-186" value="" style="rounded=0;whiteSpace=wrap;html=1;" vertex="1" parent="1">
          <mxGeometry x="520" y="-40" width="300" height="40" as="geometry" />
        </mxCell>
        <mxCell id="rwhs5wRmaJiQvYH29Ca9-187" value="Version" style="text;strokeColor=none;fillColor=none;html=1;fontSize=24;fontStyle=2;verticalAlign=middle;align=center;fontFamily=Comic Sans MS;" vertex="1" parent="1">
          <mxGeometry x="610" y="-40" width="100" height="40" as="geometry" />
        </mxCell>
        <mxCell id="rwhs5wRmaJiQvYH29Ca9-188" value="" style="rounded=0;whiteSpace=wrap;html=1;" vertex="1" parent="1">
          <mxGeometry x="520" y="10" width="300" height="40" as="geometry" />
        </mxCell>
        <mxCell id="rwhs5wRmaJiQvYH29Ca9-189" value="Previous Block Hash" style="text;strokeColor=none;fillColor=none;html=1;fontSize=24;fontStyle=0;verticalAlign=middle;align=center;fontFamily=Comic Sans MS;" vertex="1" parent="1">
          <mxGeometry x="620" y="10" width="100" height="40" as="geometry" />
        </mxCell>
        <mxCell id="rwhs5wRmaJiQvYH29Ca9-190" value="" style="rounded=0;whiteSpace=wrap;html=1;" vertex="1" parent="1">
          <mxGeometry x="520" y="70" width="140" height="40" as="geometry" />
        </mxCell>
        <mxCell id="rwhs5wRmaJiQvYH29Ca9-191" value="" style="rounded=0;whiteSpace=wrap;html=1;" vertex="1" parent="1">
          <mxGeometry x="680" y="70" width="140" height="40" as="geometry" />
        </mxCell>
        <mxCell id="rwhs5wRmaJiQvYH29Ca9-192" value="&lt;font face=&quot;Comic Sans MS&quot;&gt;&lt;i&gt;Timestamp&lt;/i&gt;&lt;/font&gt;" style="text;strokeColor=none;fillColor=none;html=1;fontSize=24;fontStyle=0;verticalAlign=middle;align=center;" vertex="1" parent="1">
          <mxGeometry x="540" y="70" width="100" height="40" as="geometry" />
        </mxCell>
        <mxCell id="rwhs5wRmaJiQvYH29Ca9-193" value="&lt;font face=&quot;Comic Sans MS&quot;&gt;&lt;i&gt;Nonce&lt;/i&gt;&lt;/font&gt;" style="text;strokeColor=none;fillColor=none;html=1;fontSize=24;fontStyle=0;verticalAlign=middle;align=center;" vertex="1" parent="1">
          <mxGeometry x="695" y="70" width="100" height="40" as="geometry" />
        </mxCell>
        <mxCell id="rwhs5wRmaJiQvYH29Ca9-194" value="" style="rounded=0;whiteSpace=wrap;html=1;" vertex="1" parent="1">
          <mxGeometry x="520" y="120" width="300" height="60" as="geometry" />
        </mxCell>
        <mxCell id="rwhs5wRmaJiQvYH29Ca9-195" value="Merkle Root" style="text;strokeColor=none;fillColor=none;html=1;fontSize=24;fontStyle=2;verticalAlign=middle;align=center;fontFamily=Comic Sans MS;" vertex="1" parent="1">
          <mxGeometry x="610" y="130" width="100" height="40" as="geometry" />
        </mxCell>
        <mxCell id="rwhs5wRmaJiQvYH29Ca9-196" value="" style="line;strokeWidth=2;html=1;" vertex="1" parent="1">
          <mxGeometry x="510" y="190" width="320" height="10" as="geometry" />
        </mxCell>
        <mxCell id="rwhs5wRmaJiQvYH29Ca9-197" value="" style="rounded=0;whiteSpace=wrap;html=1;" vertex="1" parent="1">
          <mxGeometry x="520" y="210" width="300" height="30" as="geometry" />
        </mxCell>
        <mxCell id="rwhs5wRmaJiQvYH29Ca9-198" value="Transaction&lt;sub&gt;1&lt;/sub&gt;" style="text;strokeColor=none;fillColor=none;html=1;fontSize=18;fontStyle=2;verticalAlign=middle;align=center;fontFamily=Comic Sans MS;" vertex="1" parent="1">
          <mxGeometry x="620" y="215" width="100" height="20" as="geometry" />
        </mxCell>
        <mxCell id="rwhs5wRmaJiQvYH29Ca9-199" value="" style="rounded=0;whiteSpace=wrap;html=1;" vertex="1" parent="1">
          <mxGeometry x="520" y="250" width="300" height="30" as="geometry" />
        </mxCell>
        <mxCell id="rwhs5wRmaJiQvYH29Ca9-200" value="Transaction&lt;span style=&quot;font-size: 15px;&quot;&gt;&lt;sub&gt;2&lt;/sub&gt;&lt;/span&gt;" style="text;strokeColor=none;fillColor=none;html=1;fontSize=18;fontStyle=2;verticalAlign=middle;align=center;fontFamily=Comic Sans MS;" vertex="1" parent="1">
          <mxGeometry x="620" y="255" width="100" height="20" as="geometry" />
        </mxCell>
        <mxCell id="rwhs5wRmaJiQvYH29Ca9-201" value="" style="ellipse;whiteSpace=wrap;html=1;aspect=fixed;gradientColor=none;fillColor=#000000;strokeColor=none;gradientDirection=north;" vertex="1" parent="1">
          <mxGeometry x="665" y="300" width="10" height="10" as="geometry" />
        </mxCell>
        <mxCell id="rwhs5wRmaJiQvYH29Ca9-202" value="" style="ellipse;whiteSpace=wrap;html=1;aspect=fixed;gradientColor=none;fillColor=#000000;strokeColor=none;gradientDirection=north;" vertex="1" parent="1">
          <mxGeometry x="665" y="320" width="10" height="10" as="geometry" />
        </mxCell>
        <mxCell id="rwhs5wRmaJiQvYH29Ca9-203" value="" style="ellipse;whiteSpace=wrap;html=1;aspect=fixed;gradientColor=none;fillColor=#000000;strokeColor=none;gradientDirection=north;" vertex="1" parent="1">
          <mxGeometry x="665" y="340" width="10" height="10" as="geometry" />
        </mxCell>
        <mxCell id="rwhs5wRmaJiQvYH29Ca9-204" value="" style="ellipse;whiteSpace=wrap;html=1;aspect=fixed;gradientColor=none;fillColor=#000000;strokeColor=none;gradientDirection=north;" vertex="1" parent="1">
          <mxGeometry x="665" y="360" width="10" height="10" as="geometry" />
        </mxCell>
        <mxCell id="rwhs5wRmaJiQvYH29Ca9-205" value="" style="ellipse;whiteSpace=wrap;html=1;aspect=fixed;gradientColor=none;fillColor=#000000;strokeColor=none;gradientDirection=north;" vertex="1" parent="1">
          <mxGeometry x="665" y="380" width="10" height="10" as="geometry" />
        </mxCell>
        <mxCell id="rwhs5wRmaJiQvYH29Ca9-206" value="" style="ellipse;whiteSpace=wrap;html=1;aspect=fixed;gradientColor=none;fillColor=#000000;strokeColor=none;gradientDirection=north;" vertex="1" parent="1">
          <mxGeometry x="665" y="400" width="10" height="10" as="geometry" />
        </mxCell>
        <mxCell id="rwhs5wRmaJiQvYH29Ca9-207" value="" style="rounded=0;whiteSpace=wrap;html=1;" vertex="1" parent="1">
          <mxGeometry x="520" y="420" width="300" height="30" as="geometry" />
        </mxCell>
        <mxCell id="rwhs5wRmaJiQvYH29Ca9-208" value="Transaction&lt;span style=&quot;font-size: 12.5px;&quot;&gt;&lt;sub&gt;n&lt;/sub&gt;&lt;/span&gt;" style="text;strokeColor=none;fillColor=none;html=1;fontSize=18;fontStyle=2;verticalAlign=middle;align=center;fontFamily=Comic Sans MS;" vertex="1" parent="1">
          <mxGeometry x="620" y="425" width="100" height="20" as="geometry" />
        </mxCell>
        <mxCell id="rwhs5wRmaJiQvYH29Ca9-209" value="" style="rounded=0;whiteSpace=wrap;html=1;strokeWidth=3;gradientColor=none;" vertex="1" parent="1">
          <mxGeometry x="990" y="-50" width="320" height="520" as="geometry" />
        </mxCell>
        <mxCell id="rwhs5wRmaJiQvYH29Ca9-210" value="" style="rounded=0;whiteSpace=wrap;html=1;" vertex="1" parent="1">
          <mxGeometry x="1000" y="-40" width="300" height="40" as="geometry" />
        </mxCell>
        <mxCell id="rwhs5wRmaJiQvYH29Ca9-211" value="Version" style="text;strokeColor=none;fillColor=none;html=1;fontSize=24;fontStyle=2;verticalAlign=middle;align=center;fontFamily=Comic Sans MS;" vertex="1" parent="1">
          <mxGeometry x="1090" y="-40" width="100" height="40" as="geometry" />
        </mxCell>
        <mxCell id="rwhs5wRmaJiQvYH29Ca9-212" value="" style="rounded=0;whiteSpace=wrap;html=1;" vertex="1" parent="1">
          <mxGeometry x="1000" y="10" width="300" height="40" as="geometry" />
        </mxCell>
        <mxCell id="rwhs5wRmaJiQvYH29Ca9-213" value="Previous Block Hash" style="text;strokeColor=none;fillColor=none;html=1;fontSize=24;fontStyle=0;verticalAlign=middle;align=center;fontFamily=Comic Sans MS;" vertex="1" parent="1">
          <mxGeometry x="1100" y="10" width="100" height="40" as="geometry" />
        </mxCell>
        <mxCell id="rwhs5wRmaJiQvYH29Ca9-214" value="" style="rounded=0;whiteSpace=wrap;html=1;" vertex="1" parent="1">
          <mxGeometry x="1000" y="70" width="140" height="40" as="geometry" />
        </mxCell>
        <mxCell id="rwhs5wRmaJiQvYH29Ca9-215" value="" style="rounded=0;whiteSpace=wrap;html=1;" vertex="1" parent="1">
          <mxGeometry x="1160" y="70" width="140" height="40" as="geometry" />
        </mxCell>
        <mxCell id="rwhs5wRmaJiQvYH29Ca9-216" value="&lt;font face=&quot;Comic Sans MS&quot;&gt;&lt;i&gt;Timestamp&lt;/i&gt;&lt;/font&gt;" style="text;strokeColor=none;fillColor=none;html=1;fontSize=24;fontStyle=0;verticalAlign=middle;align=center;" vertex="1" parent="1">
          <mxGeometry x="1020" y="70" width="100" height="40" as="geometry" />
        </mxCell>
        <mxCell id="rwhs5wRmaJiQvYH29Ca9-217" value="&lt;font face=&quot;Comic Sans MS&quot;&gt;&lt;i&gt;Nonce&lt;/i&gt;&lt;/font&gt;" style="text;strokeColor=none;fillColor=none;html=1;fontSize=24;fontStyle=0;verticalAlign=middle;align=center;" vertex="1" parent="1">
          <mxGeometry x="1175" y="70" width="100" height="40" as="geometry" />
        </mxCell>
        <mxCell id="rwhs5wRmaJiQvYH29Ca9-218" value="" style="rounded=0;whiteSpace=wrap;html=1;" vertex="1" parent="1">
          <mxGeometry x="1000" y="120" width="300" height="60" as="geometry" />
        </mxCell>
        <mxCell id="rwhs5wRmaJiQvYH29Ca9-219" value="Merkle Root" style="text;strokeColor=none;fillColor=none;html=1;fontSize=24;fontStyle=2;verticalAlign=middle;align=center;fontFamily=Comic Sans MS;" vertex="1" parent="1">
          <mxGeometry x="1090" y="130" width="100" height="40" as="geometry" />
        </mxCell>
        <mxCell id="rwhs5wRmaJiQvYH29Ca9-220" value="" style="line;strokeWidth=2;html=1;" vertex="1" parent="1">
          <mxGeometry x="990" y="190" width="320" height="10" as="geometry" />
        </mxCell>
        <mxCell id="rwhs5wRmaJiQvYH29Ca9-221" value="" style="rounded=0;whiteSpace=wrap;html=1;" vertex="1" parent="1">
          <mxGeometry x="1000" y="210" width="300" height="30" as="geometry" />
        </mxCell>
        <mxCell id="rwhs5wRmaJiQvYH29Ca9-222" value="Transaction&lt;sub&gt;1&lt;/sub&gt;" style="text;strokeColor=none;fillColor=none;html=1;fontSize=18;fontStyle=2;verticalAlign=middle;align=center;fontFamily=Comic Sans MS;" vertex="1" parent="1">
          <mxGeometry x="1100" y="215" width="100" height="20" as="geometry" />
        </mxCell>
        <mxCell id="rwhs5wRmaJiQvYH29Ca9-223" value="" style="rounded=0;whiteSpace=wrap;html=1;" vertex="1" parent="1">
          <mxGeometry x="1000" y="250" width="300" height="30" as="geometry" />
        </mxCell>
        <mxCell id="rwhs5wRmaJiQvYH29Ca9-224" value="Transaction&lt;span style=&quot;font-size: 15px;&quot;&gt;&lt;sub&gt;2&lt;/sub&gt;&lt;/span&gt;" style="text;strokeColor=none;fillColor=none;html=1;fontSize=18;fontStyle=2;verticalAlign=middle;align=center;fontFamily=Comic Sans MS;" vertex="1" parent="1">
          <mxGeometry x="1100" y="255" width="100" height="20" as="geometry" />
        </mxCell>
        <mxCell id="rwhs5wRmaJiQvYH29Ca9-225" value="" style="ellipse;whiteSpace=wrap;html=1;aspect=fixed;gradientColor=none;fillColor=#000000;strokeColor=none;gradientDirection=north;" vertex="1" parent="1">
          <mxGeometry x="1145" y="300" width="10" height="10" as="geometry" />
        </mxCell>
        <mxCell id="rwhs5wRmaJiQvYH29Ca9-226" value="" style="ellipse;whiteSpace=wrap;html=1;aspect=fixed;gradientColor=none;fillColor=#000000;strokeColor=none;gradientDirection=north;" vertex="1" parent="1">
          <mxGeometry x="1145" y="320" width="10" height="10" as="geometry" />
        </mxCell>
        <mxCell id="rwhs5wRmaJiQvYH29Ca9-227" value="" style="ellipse;whiteSpace=wrap;html=1;aspect=fixed;gradientColor=none;fillColor=#000000;strokeColor=none;gradientDirection=north;" vertex="1" parent="1">
          <mxGeometry x="1145" y="340" width="10" height="10" as="geometry" />
        </mxCell>
        <mxCell id="rwhs5wRmaJiQvYH29Ca9-228" value="" style="ellipse;whiteSpace=wrap;html=1;aspect=fixed;gradientColor=none;fillColor=#000000;strokeColor=none;gradientDirection=north;" vertex="1" parent="1">
          <mxGeometry x="1145" y="360" width="10" height="10" as="geometry" />
        </mxCell>
        <mxCell id="rwhs5wRmaJiQvYH29Ca9-229" value="" style="ellipse;whiteSpace=wrap;html=1;aspect=fixed;gradientColor=none;fillColor=#000000;strokeColor=none;gradientDirection=north;" vertex="1" parent="1">
          <mxGeometry x="1145" y="380" width="10" height="10" as="geometry" />
        </mxCell>
        <mxCell id="rwhs5wRmaJiQvYH29Ca9-230" value="" style="ellipse;whiteSpace=wrap;html=1;aspect=fixed;gradientColor=none;fillColor=#000000;strokeColor=none;gradientDirection=north;" vertex="1" parent="1">
          <mxGeometry x="1145" y="400" width="10" height="10" as="geometry" />
        </mxCell>
        <mxCell id="rwhs5wRmaJiQvYH29Ca9-231" value="" style="rounded=0;whiteSpace=wrap;html=1;" vertex="1" parent="1">
          <mxGeometry x="1000" y="420" width="300" height="30" as="geometry" />
        </mxCell>
        <mxCell id="rwhs5wRmaJiQvYH29Ca9-232" value="Transaction&lt;span style=&quot;font-size: 12.5px;&quot;&gt;&lt;sub&gt;n&lt;/sub&gt;&lt;/span&gt;" style="text;strokeColor=none;fillColor=none;html=1;fontSize=18;fontStyle=2;verticalAlign=middle;align=center;fontFamily=Comic Sans MS;" vertex="1" parent="1">
          <mxGeometry x="1100" y="425" width="100" height="20" as="geometry" />
        </mxCell>
        <mxCell id="rwhs5wRmaJiQvYH29Ca9-234" value="" style="endArrow=classic;html=1;rounded=0;strokeWidth=3;entryX=1;entryY=0.25;entryDx=0;entryDy=0;exitX=0;exitY=0.5;exitDx=0;exitDy=0;" edge="1" parent="1" source="rwhs5wRmaJiQvYH29Ca9-188" target="rwhs5wRmaJiQvYH29Ca9-1">
          <mxGeometry width="50" height="50" relative="1" as="geometry">
            <mxPoint x="440" y="240" as="sourcePoint" />
            <mxPoint x="350" y="40" as="targetPoint" />
          </mxGeometry>
        </mxCell>
        <mxCell id="rwhs5wRmaJiQvYH29Ca9-259" value="" style="endArrow=classic;html=1;rounded=0;strokeWidth=3;entryX=1;entryY=0.25;entryDx=0;entryDy=0;exitX=0;exitY=0.5;exitDx=0;exitDy=0;" edge="1" parent="1" source="rwhs5wRmaJiQvYH29Ca9-212" target="rwhs5wRmaJiQvYH29Ca9-185">
          <mxGeometry width="50" height="50" relative="1" as="geometry">
            <mxPoint x="950" y="30" as="sourcePoint" />
            <mxPoint x="770" y="80" as="targetPoint" />
          </mxGeometry>
        </mxCell>
        <mxCell id="rwhs5wRmaJiQvYH29Ca9-260" value="" style="endArrow=classic;html=1;rounded=0;strokeWidth=3;entryX=1;entryY=0.25;entryDx=0;entryDy=0;exitX=0;exitY=0.5;exitDx=0;exitDy=0;" edge="1" parent="1">
          <mxGeometry width="50" height="50" relative="1" as="geometry">
            <mxPoint x="1490" y="40" as="sourcePoint" />
            <mxPoint x="1310" y="90" as="targetPoint" />
          </mxGeometry>
        </mxCell>
      </root>
    </mxGraphModel>
  </diagram>
</mxfile>
